<svg width="58" height="58" viewBox="0 0 58 58" fill="none" xmlns="http://www.w3.org/2000/svg">
<rect width="58" height="58" rx="29" fill="#F2F4F0"/>
<path d="M44.5603 36.3153C44.5619 23.6337 34.2828 13.3546 21.6012 13.3562M34.2992 36.7368C34.2991 33.2573 32.9169 29.9204 30.4565 27.46C27.9961 24.9996 24.6592 23.6174 21.1797 23.6173" stroke="#090B23" stroke-width="6.0282" stroke-linecap="round" stroke-linejoin="round"/>
<path d="M25.4399 46.85H13.7099C12.0199 46.85 10.6499 45.48 10.6499 43.79V32.06C10.6499 31.215 11.3349 30.53 12.1799 30.53H15.6074C16.4172 30.53 17.194 30.851 17.7675 31.4226L26.07 39.6974C26.6461 40.2716 26.9699 41.0515 26.9699 41.8648V45.32C26.9699 46.165 26.2849 46.85 25.4399 46.85Z" fill="#090B23"/>
</svg>
